<?xml version="1.0" encoding="UTF-8" standalone="no"?>
<svg
   version="1.0"
   width="208.33372pt"
   height="208.29932pt"
   viewBox="0 0 208.33372 208.29932"
   preserveAspectRatio="xMidYMid"
   id="svg4"
   sodipodi:docname="wheel.svg"
   inkscape:version="1.4.2 (f4327f4, 2025-05-13)"
   xmlns:inkscape="http://www.inkscape.org/namespaces/inkscape"
   xmlns:sodipodi="http://sodipodi.sourceforge.net/DTD/sodipodi-0.dtd"
   xmlns="http://www.w3.org/2000/svg"
   xmlns:svg="http://www.w3.org/2000/svg">
  <defs
     id="defs4" />
  <sodipodi:namedview
     id="namedview4"
     bordercolor="#000000" />
  <path
     d="M 102.96094,0 C 59.260936,0.8 19.662012,29.499609 5.5620117,70.599609 c -14.5,42.700001 -9.943e-4,90.199511 35.8989263,117.499511 8.5,6.5 26.300488,15.1 37.000488,18 7.4,2 10.800487,2.2002 26.500484,2.2002 16.6,0 18.7,-0.19932 27,-2.79932 23.4,-7 42.19991,-19.90098 55.89991,-38.00098 9.5,-12.6 15.80009,-26.9 19.10009,-43.5 2.3,-11.3 1.59922,-34.20029 -1.30078,-45.30029 -11.1,-41.2 -44.1999,-70.9998042 -85.8999,-77.2998042 C 114.36123,0.59892578 106.86094,0 102.96094,0 Z m 0.55078,18.987305 c 7.125,-0.0875 14.40049,0.411718 19.75049,1.511718 26.1,5.4 49.79931,24.199805 61.29931,48.799805 3.7,8 5.70078,17.000391 4.30078,19.400391 -2.6,4.1 -13.5996,2.399707 -40.5996,-6.300293 -39.1,-12.7 -50.300298,-12.5 -93.300298,1.5 -20.5,6.7 -30.400879,8.401172 -33.900879,5.701172 -1.8,-1.3 -1.798828,-1.700098 -0.298828,-8.600098 2.2,-9.4 8.298731,-21.000391 15.698731,-29.900391 C 47.661426,37.799609 67.562109,25.4 84.662109,21 c 4.75,-1.25 11.72461,-1.925195 18.849611,-2.012695 z m 72.10254,97.390135 c 5.23594,0.0844 9.92256,2.22129 12.24756,5.82129 2,3.1 0.40048,12.3002 -3.49952,20.2002 -10.8,21.9 -41.70058,47.40048 -57.60058,47.50048 -6.3,0 -7.79942,-2.69941 -6.89942,-12.89941 1.2,-15.3 6.4,-27.00039 16.5,-37.40039 11,-11.5 24.29942,-20.29961 33.89942,-22.59961 1.8,-0.45 3.60723,-0.65068 5.35254,-0.62256 z m -142.302248,0.52149 c 3.575,-0.075 7.500781,0.5499 11.050781,1.8999 6.9,2.6 18.698828,11.1 27.298828,19.5 11.5,11.3 17.700781,26.10068 17.800781,42.20068 0,7.9 -1.799707,9.89922 -8.699707,9.19922 -13.2,-1.3 -38.400879,-20.29951 -50.400879,-37.99951 -6.7,-9.8 -9.300293,-16.39971 -9.300293,-23.69971 -0.1,-6.3 2.93e-4,-6.60078 3.300293,-8.80078 2.15,-1.45 5.375196,-2.2248 8.950196,-2.2998 z"
     style=""
     id="path5" />
  <metadata
     id="metadata1">
Created by potrace 1.16, written by Peter Selinger 2001-2019
</metadata>
</svg>
